<svg width="32" height="32" viewBox="0 0 32 32" fill="none" xmlns="http://www.w3.org/2000/svg">
  <rect width="32" height="32" rx="6" fill="#16a34a"/>
  <path d="M4 18L10 10L16 18" stroke="white" stroke-width="2" stroke-linecap="round" stroke-linejoin="round" fill="rgba(255,255,255,0.2)"/>
  <path d="M12 18L18 10L24 18" stroke="white" stroke-width="2" stroke-linecap="round" stroke-linejoin="round" fill="rgba(255,255,255,0.2)"/>
  <line x1="3" y1="18" x2="25" y2="18" stroke="white" stroke-width="2" stroke-linecap="round"/>
  <rect x="5" y="20" width="6" height="4" rx="1" fill="rgba(255,255,255,0.3)" stroke="white" stroke-width="1"/>
  <rect x="13" y="20" width="6" height="4" rx="1" fill="rgba(255,255,255,0.3)" stroke="white" stroke-width="1"/>
  <rect x="5" y="25" width="6" height="4" rx="1" fill="rgba(255,255,255,0.3)" stroke="white" stroke-width="1"/>
  <rect x="13" y="25" width="6" height="4" rx="1" fill="rgba(255,255,255,0.3)" stroke="white" stroke-width="1"/>
  <path d="M24 8C24 3 29 1 29 1C29 1 31 6 28 9C26.5 11 24 8 24 8Z" fill="white"/>
  <path d="M29 1C27 4 25 7 24 8" stroke="rgba(22,163,74,0.4)" stroke-width="0.6" stroke-linecap="round"/>
</svg>
